<svg version="1.2" xmlns="http://www.w3.org/2000/svg" viewBox="0 0 4228.057393600597 3836.868183112081" width="4229" height="3837"><style>.a{opacity:.85;fill:#08001a}.b{fill:#fff}.c{fill:#e3dafa}</style><path fill-rule="evenodd" class="a" d="m3926.1 1700.5l-351.7 1312.6c-144.9 540.9-701 862-1241.9 717l-1312.6-351.7c-540.9-144.9-862-701-717-1241.9l351.7-1312.6c144.9-540.9 701-862 1241.9-717l1312.6 351.7c540.9 144.9 862 701 717 1241.9z"/><path class="b" d="m1306.8 2240.6l165.5-286.7 724.1 1254.2h-331l-165.6-286.7-165.5 286.7h-165.5l-82.7-143.3 248.2-430z"/><path class="c" d="m1430.9 1380.5h331l-724.1 1254.3-165.5-286.7 165.5-286.7h-331l-82.8-143.3 82.8-143.4h496.5z"/><path class="b" d="m2237.8 1058l165.5 286.7h-1448.3l165.5-286.7h331.1l-165.5-286.7 82.7-143.3h165.5l248.3 430z"/><path class="c" d="m2920.5 1595.5l-165.5 286.7-724.1-1254.2h331l165.5 286.7 165.5-286.7h165.6l82.7 143.3-248.3 430.1z"/><path class="b" d="m2796.4 2455.6h-331l724.1-1254.2 165.5 286.6-165.5 286.7h331l82.8 143.4-82.8 143.3h-496.5z"/><path class="c" d="m1989.5 2778.1l-165.5-286.7h1448.2l-165.5 286.7h-331l165.5 286.7-82.7 143.3h-165.6l-248.2-430z"/></svg>